<svg width="33" height="33" viewBox="0 0 33 33" fill="none" xmlns="http://www.w3.org/2000/svg">
<mask id="path-1-outside-1" maskUnits="userSpaceOnUse" x="0.5" y="0.189062" width="32" height="32.1" fill="black">
<rect fill="white" x="0.5" y="0.189062" width="32" height="32.1"/>
<path d="M15.7426 0.800933C13.8509 0.909982 12.2964 1.24924 10.6861 1.89868C7.84381 3.04732 5.41622 5.00533 3.67253 7.55706C2.35082 9.49084 1.47533 11.7445 1.14308 14.0733C1.02668 14.8923 1 15.331 1 16.3051C1 17.2647 1.02668 17.6791 1.14551 18.4982C1.7809 22.9716 4.34187 26.9482 8.15908 29.386C10.2884 30.7455 12.6287 31.5306 15.2454 31.7584C15.7741 31.8045 17.2365 31.7972 17.7797 31.7463C18.8419 31.6445 19.7974 31.4652 20.7263 31.1962C24.8684 29.9991 28.3243 27.1154 30.2572 23.2478C30.8004 22.1574 31.1035 21.3431 31.4576 20.0006C31.8093 18.6727 31.916 17.8487 31.916 16.4626C31.9184 15.457 31.8626 14.7712 31.6977 13.7849C31.1496 10.482 29.6169 7.52798 27.2451 5.20647C25.368 3.36477 23.1757 2.09012 20.6414 1.36556C19.3124 0.985104 18.8371 0.905136 17.2704 0.808203C16.9382 0.786395 16.0384 0.781549 15.7426 0.800933ZM17.0085 0.905136H17.1613L17.0376 1.13777C16.9139 1.36798 16.9115 1.37041 16.8872 1.68301C16.8727 1.86718 16.8727 2.00773 16.8848 2.01985C16.9091 2.04408 17.3116 2.16767 17.3238 2.15555C17.3286 2.1507 17.3504 2.05377 17.3723 1.93988C17.4111 1.74359 17.4208 1.72178 17.5275 1.61758L17.6415 1.50611L18.4151 1.85022C18.8395 2.04166 19.3003 2.25248 19.4409 2.32276L19.6956 2.44877L20.3334 2.39788L20.9688 2.34457L21.1458 2.17009C21.2428 2.07316 21.3277 1.99561 21.3374 1.99561C21.3447 1.99561 21.7594 2.1919 22.259 2.4318L23.1636 2.868H23.571H23.9808L24.2137 3.00612C24.9315 3.42535 25.7658 4.0239 26.4497 4.61034C26.7237 4.8454 27.2306 5.32036 27.2184 5.33006C27.2136 5.3349 27.0268 5.26947 26.7989 5.18466C25.8094 4.81632 25.1449 4.4916 24.8175 4.22019L24.7011 4.12326L23.8014 4.05298L22.8992 3.98029L22.6979 4.18142C22.5864 4.29047 22.4966 4.39709 22.4966 4.4189C22.4991 4.43829 22.5403 4.55218 22.5912 4.67335L22.6834 4.89144L22.8556 4.89871C22.9526 4.90356 23.0302 4.91325 23.0326 4.92294C23.0326 4.93264 23.0472 5.07561 23.0641 5.24282C23.0811 5.41002 23.0932 5.54815 23.0932 5.55057C23.0908 5.553 22.9598 5.47787 22.8022 5.38337C22.5767 5.25009 22.5112 5.21858 22.4942 5.24524C22.4821 5.26463 22.3948 5.41972 22.2978 5.58935C22.145 5.86075 22.1159 5.8971 22.0722 5.88499C22.0456 5.8753 21.9583 5.86318 21.8782 5.85591C21.7982 5.85106 21.7109 5.83652 21.6842 5.8244C21.6575 5.81229 21.609 5.80017 21.5751 5.79533C21.5314 5.79048 21.5023 5.7614 21.4708 5.69597C21.4223 5.59662 21.4053 5.59419 21.2089 5.63054C21.1216 5.64751 21.0561 5.67901 21.0052 5.72747L20.9324 5.79775L20.8233 5.71536C20.719 5.63539 20.7044 5.63054 20.5129 5.63054C20.297 5.63054 20.3091 5.62327 20.2558 5.7929C20.2412 5.83895 20.2509 5.84622 20.3625 5.86075L20.4838 5.87772L20.3746 6.01342C20.2752 6.14185 20.2703 6.15397 20.3019 6.20486C20.3528 6.27998 20.3504 6.28483 20.2461 6.28483C20.1273 6.28483 19.8314 6.20971 19.6252 6.12732C19.4458 6.05462 19.2518 6.04492 19.1257 6.09824C19.0238 6.13943 18.8759 6.28241 18.5582 6.64348L18.3181 6.91973L18.5097 7.11117L18.7013 7.30261H18.8395C18.9171 7.30261 19.0626 7.32684 19.162 7.35592C19.3173 7.40196 19.3464 7.41893 19.3658 7.47709C19.3924 7.55463 19.424 7.55706 19.8605 7.52798L20.0982 7.51344L20.3819 7.28807C20.6802 7.04817 20.6802 7.04817 21.0682 6.98274C21.2259 6.95608 21.2283 6.95608 21.4878 7.06028C21.7254 7.15479 21.7594 7.16206 21.8855 7.14752C22.259 7.1039 22.3099 7.10148 22.2929 7.12813C22.2687 7.16691 22.3439 7.32684 22.4869 7.54494C22.5524 7.64429 22.6616 7.85997 22.7295 8.0199C22.7998 8.18226 22.9113 8.39551 22.9768 8.49729C23.086 8.65723 23.1029 8.69842 23.1199 8.85594C23.1393 9.02799 23.1417 9.03526 23.1999 9.03041C23.2339 9.02557 23.394 9.03526 23.5589 9.0498C23.7238 9.06434 23.862 9.07161 23.8693 9.06434C23.8766 9.05949 23.8402 8.98922 23.7917 8.91167C23.7262 8.80505 23.6583 8.73962 23.5249 8.64996C23.377 8.54818 23.343 8.51183 23.3066 8.41974C23.2848 8.35916 23.1902 8.11441 23.0981 7.87693C23.0035 7.63945 22.9332 7.44074 22.938 7.43831C22.9404 7.43347 22.9938 7.41166 23.0544 7.38985C23.1805 7.34138 23.1781 7.33896 23.2969 7.56917C23.3357 7.64187 23.4206 7.78484 23.4885 7.88177C23.6074 8.0611 23.6146 8.06595 23.896 8.20892L24.1821 8.35674L24.1943 8.56514C24.2137 8.88017 24.2525 8.92863 24.6065 9.05949L24.8854 9.16127L25.0916 9.05222C25.385 8.89713 25.3874 8.89471 25.4529 8.77354L25.5135 8.6645L25.4117 8.52879L25.3074 8.39309H25.5717H25.8385L26.0447 8.61845C26.2459 8.83655 26.2581 8.84624 26.6049 9.0183C26.891 9.15885 26.9589 9.20247 26.9492 9.23639C26.9444 9.2582 26.9323 9.34302 26.9226 9.42056L26.9056 9.56354L27.119 9.77678L27.3324 9.99246L27.25 10.0773C27.2039 10.1233 27.1602 10.1621 27.1481 10.1621C27.0923 10.1621 26.1732 9.73316 25.8991 9.57807L25.579 9.39875L25.0382 9.42783C24.7399 9.44479 24.4513 9.46418 24.398 9.47145L24.2985 9.48599L24.3082 9.70893C24.3131 9.83252 24.3228 9.95611 24.3276 9.98276C24.3349 10.0191 24.4634 10.116 24.7351 10.2929C25.0552 10.5013 25.2128 10.5837 25.5596 10.7291C25.9331 10.8842 26.6437 11.2647 26.6825 11.3277C26.6897 11.3398 26.6825 11.461 26.6679 11.5967C26.6412 11.8245 26.6267 11.8681 26.5127 12.0813C26.4448 12.2122 26.3818 12.3188 26.3696 12.3188C26.3599 12.3188 26.2653 12.2607 26.1586 12.1904C26.0253 12.1007 25.8337 11.9238 25.5232 11.6015L25.0794 11.1435L24.9558 11.1411C24.8369 11.1411 24.8224 11.1338 24.4537 10.843L24.073 10.5474L23.8984 10.5547L23.7238 10.5619L23.6728 10.7679L23.6219 10.9739L23.537 10.9666C23.3818 10.9521 23.3697 10.9424 23.3673 10.8333C23.3673 10.7776 23.36 10.7122 23.3503 10.6904C23.3406 10.6686 23.0229 10.419 22.6421 10.1379C22.2614 9.85675 21.9534 9.61927 21.9558 9.61442C21.9558 9.60715 22.0286 9.52234 22.1159 9.42541C22.2687 9.25578 22.2808 9.24608 22.47 9.19277C22.5791 9.16369 22.6664 9.12977 22.6664 9.12007C22.6664 9.1128 22.6155 9.02799 22.55 8.93591L22.436 8.7687L22.3051 8.76143C22.1862 8.75416 22.1474 8.73477 21.8879 8.55545L21.5993 8.35916L21.3204 8.42701L21.0415 8.49487L20.8669 8.35432C20.7723 8.27435 20.6099 8.14107 20.5104 8.05867L20.3261 7.90358L20.0909 7.91812C19.7344 7.93751 19.3876 7.8842 19.065 7.76303L18.7983 7.66126L18.4709 7.69034L18.1435 7.71941L17.7918 7.96659L17.4402 8.21376L17.1128 8.2695C16.8145 8.31797 16.7708 8.33251 16.6156 8.42944C16.5235 8.4876 16.3634 8.55787 16.264 8.58695C16.0942 8.63542 16.0772 8.64753 15.9851 8.77112L15.8881 8.9044L15.5825 8.88986L15.2794 8.87532L14.952 9.16854C14.7434 9.35756 14.6221 9.48599 14.61 9.52719C14.6003 9.56354 14.5542 9.76709 14.5033 9.98276L14.4136 10.3705L14.0935 10.7098C13.783 11.0369 13.7733 11.0514 13.7345 11.2089C13.7103 11.3035 13.6933 11.4682 13.6933 11.6015C13.6933 11.822 13.6982 11.8463 13.8146 12.1371C13.9698 12.5272 14.1686 12.9246 14.61 13.7316L14.9665 14.3786L15.1047 14.4634C15.2357 14.541 15.2672 14.5482 15.5073 14.5628L15.7668 14.5797L16.1015 14.8439C16.3367 15.0256 16.458 15.1056 16.5016 15.1056C16.538 15.1056 16.7854 15.1226 17.0522 15.1419C17.3189 15.1613 17.5493 15.1783 17.5614 15.1783C17.576 15.1783 17.6245 15.2389 17.6706 15.314L17.753 15.4497L17.8791 15.4327L18.0052 15.4182L18.2284 15.6775L18.4539 15.9344L18.5533 15.9222C18.6091 15.915 18.6964 15.9004 18.7522 15.8932L18.8492 15.8762L18.9123 16.31L18.9729 16.7413L18.8201 16.957C18.7352 17.0757 18.5849 17.2429 18.4878 17.3277L18.3084 17.4828L18.3787 17.8875C18.4151 18.1129 18.4733 18.6194 18.5048 19.0265C18.5655 19.7583 18.5655 19.7583 18.5169 19.9279C18.4248 20.2599 18.4248 20.2599 18.1071 20.4707L17.8185 20.6622L17.4717 21.6945L17.1273 22.7268L17.234 23.2527L17.3407 23.7785L17.2728 24.2317L17.2049 24.6873L16.9915 24.9659L16.7781 25.247L16.7611 25.5233C16.749 25.7099 16.7248 25.8553 16.6884 25.9643L16.6326 26.1267L16.846 26.1897L17.0594 26.2527L17.3019 26.1437L17.542 26.0346H17.8428H18.1435L18.6479 26.197L19.1548 26.3593L19.4725 26.1994C19.6495 26.1097 20.0303 25.8965 20.3188 25.7244L20.8451 25.4118L21.1046 25.3852C21.2477 25.3682 21.3738 25.344 21.3835 25.3294C21.3908 25.3149 21.4126 25.1259 21.432 24.9126L21.4635 24.5225L21.6018 24.3625L21.7424 24.2002L21.9801 24.1711C22.3608 24.1226 22.3754 24.1178 22.6155 23.9167L22.8386 23.7325H23.0278H23.2169L23.8935 23.1267C24.655 22.4433 24.592 22.533 24.6672 22.0362C24.689 21.8956 24.7302 21.6654 24.7617 21.5225C24.8175 21.2656 24.8199 21.2607 25.0794 20.8779L25.3389 20.4926L25.5014 20.4756C25.5887 20.4683 25.7027 20.4611 25.7561 20.4611C25.8143 20.4611 25.9525 20.415 26.132 20.3375C26.3696 20.2308 26.4957 20.1509 26.9589 19.8116L27.507 19.4118L27.6865 19.1064C28.009 18.5563 28.123 18.3576 28.123 18.3358C28.123 18.3237 28.0406 18.2849 27.9411 18.2486L27.7592 18.1856L27.6671 18.2825L27.5774 18.3794L27.3518 18.1977C27.0681 17.9675 27.0826 17.9772 27.0608 18.0402C27.0462 18.0741 27.0317 17.9893 27.0123 17.7712C26.9929 17.558 26.9905 17.4368 27.0074 17.4077C27.0632 17.3011 27.0365 17.2284 26.8789 17.0636C26.7019 16.8819 26.6049 16.6977 26.4375 16.2445C26.3332 15.9634 26.3235 15.9125 26.2896 15.5394C26.2605 15.2049 26.2605 15.1104 26.2872 14.982C26.3066 14.8778 26.3138 14.7421 26.3017 14.5725C26.2872 14.3083 26.2969 13.4965 26.3187 13.3221L26.3308 13.2227L26.5127 13.2639C26.6121 13.2881 26.7019 13.3148 26.7091 13.3221C26.7188 13.3317 26.6994 13.5862 26.6655 13.8891L26.6049 14.4392L26.7213 14.6912L26.8377 14.9408V15.3697C26.8377 16.0192 26.8813 16.3269 27.0317 16.7728L27.1578 17.1411L27.4512 17.5119C27.6113 17.713 27.7447 17.8851 27.7495 17.8875C27.752 17.8924 27.815 17.8512 27.8878 17.7979C28.0163 17.6985 28.0187 17.6985 28.2346 17.6985L28.4504 17.6961L29.1416 16.9327L29.8328 16.1694L29.874 15.9707C29.8958 15.8617 29.9152 15.755 29.9176 15.7332C29.9176 15.6896 29.7697 15.4788 29.4253 15.0329C29.1731 14.7082 29.1586 14.7009 28.9573 14.8463C28.8845 14.8972 28.8166 14.9335 28.8069 14.9263C28.7996 14.9166 28.7802 14.8124 28.7633 14.6912C28.739 14.5095 28.7148 14.4416 28.6275 14.2865C28.5401 14.1339 28.511 14.1023 28.4698 14.1072C28.4334 14.112 28.4019 14.0927 28.3752 14.0515C28.3413 14.0006 28.3389 13.9545 28.351 13.7776C28.3607 13.6613 28.3825 13.5014 28.3971 13.4238C28.4262 13.2809 28.4262 13.2784 28.5789 13.196C28.6638 13.15 28.7342 13.1161 28.739 13.1209C28.7633 13.1548 29.0058 13.8455 29.0494 14.0127L29.1052 14.2162L29.4326 14.4973C29.6121 14.6524 29.9346 14.9457 30.148 15.1516L30.5336 15.5248L30.6403 15.8665C30.701 16.0531 30.7834 16.3778 30.8246 16.5838L30.9023 16.9594L31.0696 17.0248L31.2394 17.0878L31.2321 17.5701C31.2272 17.8342 31.1957 18.474 31.1642 18.9925C31.1302 19.5111 31.106 19.9376 31.1108 19.94C31.1157 19.9425 31.1642 19.9691 31.2224 19.9982C31.2782 20.0273 31.3242 20.0612 31.3242 20.0733C31.3242 20.1484 31.0623 21.0257 30.9217 21.4207C30.3323 23.0855 29.4957 24.5855 28.3971 25.9571C26.1198 28.7972 22.8944 30.7406 19.3318 31.424C18.3642 31.6082 17.5129 31.6857 16.4459 31.6857C15.3303 31.6857 14.4645 31.6033 13.4605 31.4022L13.0676 31.3246L12.8372 31.0847C12.7111 30.9515 12.5826 30.8133 12.551 30.777C12.4904 30.7067 12.454 30.6946 9.07337 29.6405L8.44282 29.4442L8.03055 29.1728C6.26745 28.0144 4.78568 26.5314 3.6216 24.76L3.36453 24.3698L3.23843 23.478C3.11474 22.5887 3.11232 22.5863 3.02259 22.4263C2.97166 22.3391 2.90133 22.1622 2.86252 22.0386L2.79462 21.8108L2.83585 21.4813C2.86495 21.2413 2.88678 21.1444 2.91588 21.1275C2.93528 21.1129 3.02016 21.0596 3.10262 21.0063L3.25055 20.9094L3.2457 20.7761C3.24328 20.7034 3.23357 20.5216 3.2263 20.3762L3.21417 20.1097L3.46882 19.9231L3.72588 19.7341V19.4748V19.2131L4.31035 18.4497C4.63047 18.0305 4.90209 17.6767 4.91421 17.6646C4.92876 17.65 5.02577 17.6694 5.16158 17.7106L5.38712 17.7761L5.4817 17.6694C5.54233 17.604 5.82365 17.1096 6.21167 16.3899L6.84464 15.2171L7.19386 15.1468L7.54309 15.0765L7.64252 14.965C7.83653 14.7445 7.82926 14.7615 7.80016 14.5846C7.77833 14.4561 7.73225 14.3423 7.56249 14.0272L7.3515 13.6347L7.06048 13.4529L6.76946 13.2712L6.76219 12.8229L6.75734 12.377L6.32566 12.1468L5.8964 11.919L5.90125 11.3277L5.90853 10.7364L6.00554 10.5571L6.10497 10.3778L6.00796 10.2178C5.9158 10.0652 5.8964 10.0482 5.64904 9.91007L5.38712 9.76224L5.32892 9.5078L5.27071 9.25336L5.31194 8.81232C5.33619 8.56999 5.34589 8.35674 5.33377 8.33735C5.30466 8.28889 4.79053 7.61764 4.78325 7.61764C4.7784 7.61764 4.60864 7.68307 4.40735 7.76303C4.04843 7.90358 4.03145 7.90843 3.80834 7.90843C3.68223 7.90843 3.58037 7.90358 3.58037 7.89631C3.58037 7.86966 3.92232 7.37531 4.16726 7.04817C4.97242 5.9698 5.96916 4.95202 7.02168 4.13295C7.47033 3.784 7.44366 3.79611 7.75165 3.79127C7.95779 3.78642 8.11785 3.80338 8.45495 3.86397L8.8939 3.94151L8.98364 3.85428C9.03699 3.80338 9.09762 3.70403 9.12915 3.61922C9.1728 3.50774 9.23343 3.42293 9.37409 3.27511L9.56082 3.07882L9.76211 3.0667C9.93672 3.05701 9.9828 3.0449 10.0992 2.97462C10.2593 2.87769 10.5648 2.75652 10.7273 2.72502C10.7928 2.71048 11.1663 2.67656 11.5592 2.64748L12.2746 2.59659L12.3498 2.52389C12.391 2.48512 12.4783 2.38819 12.5438 2.30822C12.6602 2.16767 12.665 2.16524 12.7839 2.16524C12.9512 2.16767 13.2543 2.20886 13.3344 2.24037C13.3708 2.25491 13.4047 2.29368 13.4144 2.33003C13.4217 2.36395 13.4532 2.42454 13.4799 2.46331C13.5187 2.51662 13.526 2.55782 13.5187 2.6499C13.5066 2.75652 13.5114 2.76622 13.5478 2.74683C13.572 2.73472 13.6982 2.61113 13.8267 2.47542C14.0377 2.25006 14.0813 2.18705 14.2729 1.82599L14.4863 1.42614L14.6537 1.40918C14.7458 1.39949 14.9035 1.38495 15.0053 1.37768L15.1896 1.36314L15.3012 1.16443L15.4152 0.965716L15.3109 0.951178L15.209 0.936639L15.3303 0.92937C15.8347 0.900289 16.2979 0.888174 16.555 0.895443C16.7223 0.900289 16.926 0.905136 17.0085 0.905136ZM1.52626 14.2405C1.61599 14.6015 1.73725 15.1516 1.79545 15.4594L1.90216 16.0192L1.88276 16.5499L1.86336 17.0806L2.09132 17.4949C2.21743 17.7203 2.31929 17.919 2.31929 17.936C2.31929 17.9505 2.26836 18.142 2.20773 18.3576L2.09617 18.7526L2.0695 19.4796L2.04525 20.209L2.19318 20.6307C2.34839 21.0693 2.40417 21.3189 2.57151 22.3173L2.64911 22.7826L2.79462 23.02C2.90375 23.1994 2.97408 23.3593 3.08564 23.6889C3.1681 23.9288 3.2263 24.1154 3.21417 24.1033C3.18022 24.0669 2.88193 23.5217 2.71216 23.1824C1.87306 21.5055 1.3662 19.7413 1.16734 17.8076C1.06305 16.7995 1.07761 15.4279 1.20371 14.415C1.25949 13.9836 1.3274 13.5789 1.3468 13.5789C1.35407 13.5789 1.43653 13.877 1.52626 14.2405Z"/>
</mask>
<path d="M15.7426 0.800933C13.8509 0.909982 12.2964 1.24924 10.6861 1.89868C7.84381 3.04732 5.41622 5.00533 3.67253 7.55706C2.35082 9.49084 1.47533 11.7445 1.14308 14.0733C1.02668 14.8923 1 15.331 1 16.3051C1 17.2647 1.02668 17.6791 1.14551 18.4982C1.7809 22.9716 4.34187 26.9482 8.15908 29.386C10.2884 30.7455 12.6287 31.5306 15.2454 31.7584C15.7741 31.8045 17.2365 31.7972 17.7797 31.7463C18.8419 31.6445 19.7974 31.4652 20.7263 31.1962C24.8684 29.9991 28.3243 27.1154 30.2572 23.2478C30.8004 22.1574 31.1035 21.3431 31.4576 20.0006C31.8093 18.6727 31.916 17.8487 31.916 16.4626C31.9184 15.457 31.8626 14.7712 31.6977 13.7849C31.1496 10.482 29.6169 7.52798 27.2451 5.20647C25.368 3.36477 23.1757 2.09012 20.6414 1.36556C19.3124 0.985104 18.8371 0.905136 17.2704 0.808203C16.9382 0.786395 16.0384 0.781549 15.7426 0.800933ZM17.0085 0.905136H17.1613L17.0376 1.13777C16.9139 1.36798 16.9115 1.37041 16.8872 1.68301C16.8727 1.86718 16.8727 2.00773 16.8848 2.01985C16.9091 2.04408 17.3116 2.16767 17.3238 2.15555C17.3286 2.1507 17.3504 2.05377 17.3723 1.93988C17.4111 1.74359 17.4208 1.72178 17.5275 1.61758L17.6415 1.50611L18.4151 1.85022C18.8395 2.04166 19.3003 2.25248 19.4409 2.32276L19.6956 2.44877L20.3334 2.39788L20.9688 2.34457L21.1458 2.17009C21.2428 2.07316 21.3277 1.99561 21.3374 1.99561C21.3447 1.99561 21.7594 2.1919 22.259 2.4318L23.1636 2.868H23.571H23.9808L24.2137 3.00612C24.9315 3.42535 25.7658 4.0239 26.4497 4.61034C26.7237 4.8454 27.2306 5.32036 27.2184 5.33006C27.2136 5.3349 27.0268 5.26947 26.7989 5.18466C25.8094 4.81632 25.1449 4.4916 24.8175 4.22019L24.7011 4.12326L23.8014 4.05298L22.8992 3.98029L22.6979 4.18142C22.5864 4.29047 22.4966 4.39709 22.4966 4.4189C22.4991 4.43829 22.5403 4.55218 22.5912 4.67335L22.6834 4.89144L22.8556 4.89871C22.9526 4.90356 23.0302 4.91325 23.0326 4.92294C23.0326 4.93264 23.0472 5.07561 23.0641 5.24282C23.0811 5.41002 23.0932 5.54815 23.0932 5.55057C23.0908 5.553 22.9598 5.47787 22.8022 5.38337C22.5767 5.25009 22.5112 5.21858 22.4942 5.24524C22.4821 5.26463 22.3948 5.41972 22.2978 5.58935C22.145 5.86075 22.1159 5.8971 22.0722 5.88499C22.0456 5.8753 21.9583 5.86318 21.8782 5.85591C21.7982 5.85106 21.7109 5.83652 21.6842 5.8244C21.6575 5.81229 21.609 5.80017 21.5751 5.79533C21.5314 5.79048 21.5023 5.7614 21.4708 5.69597C21.4223 5.59662 21.4053 5.59419 21.2089 5.63054C21.1216 5.64751 21.0561 5.67901 21.0052 5.72747L20.9324 5.79775L20.8233 5.71536C20.719 5.63539 20.7044 5.63054 20.5129 5.63054C20.297 5.63054 20.3091 5.62327 20.2558 5.7929C20.2412 5.83895 20.2509 5.84622 20.3625 5.86075L20.4838 5.87772L20.3746 6.01342C20.2752 6.14185 20.2703 6.15397 20.3019 6.20486C20.3528 6.27998 20.3504 6.28483 20.2461 6.28483C20.1273 6.28483 19.8314 6.20971 19.6252 6.12732C19.4458 6.05462 19.2518 6.04492 19.1257 6.09824C19.0238 6.13943 18.8759 6.28241 18.5582 6.64348L18.3181 6.91973L18.5097 7.11117L18.7013 7.30261H18.8395C18.9171 7.30261 19.0626 7.32684 19.162 7.35592C19.3173 7.40196 19.3464 7.41893 19.3658 7.47709C19.3924 7.55463 19.424 7.55706 19.8605 7.52798L20.0982 7.51344L20.3819 7.28807C20.6802 7.04817 20.6802 7.04817 21.0682 6.98274C21.2259 6.95608 21.2283 6.95608 21.4878 7.06028C21.7254 7.15479 21.7594 7.16206 21.8855 7.14752C22.259 7.1039 22.3099 7.10148 22.2929 7.12813C22.2687 7.16691 22.3439 7.32684 22.4869 7.54494C22.5524 7.64429 22.6616 7.85997 22.7295 8.0199C22.7998 8.18226 22.9113 8.39551 22.9768 8.49729C23.086 8.65723 23.1029 8.69842 23.1199 8.85594C23.1393 9.02799 23.1417 9.03526 23.1999 9.03041C23.2339 9.02557 23.394 9.03526 23.5589 9.0498C23.7238 9.06434 23.862 9.07161 23.8693 9.06434C23.8766 9.05949 23.8402 8.98922 23.7917 8.91167C23.7262 8.80505 23.6583 8.73962 23.5249 8.64996C23.377 8.54818 23.343 8.51183 23.3066 8.41974C23.2848 8.35916 23.1902 8.11441 23.0981 7.87693C23.0035 7.63945 22.9332 7.44074 22.938 7.43831C22.9404 7.43347 22.9938 7.41166 23.0544 7.38985C23.1805 7.34138 23.1781 7.33896 23.2969 7.56917C23.3357 7.64187 23.4206 7.78484 23.4885 7.88177C23.6074 8.0611 23.6146 8.06595 23.896 8.20892L24.1821 8.35674L24.1943 8.56514C24.2137 8.88017 24.2525 8.92863 24.6065 9.05949L24.8854 9.16127L25.0916 9.05222C25.385 8.89713 25.3874 8.89471 25.4529 8.77354L25.5135 8.6645L25.4117 8.52879L25.3074 8.39309H25.5717H25.8385L26.0447 8.61845C26.2459 8.83655 26.2581 8.84624 26.6049 9.0183C26.891 9.15885 26.9589 9.20247 26.9492 9.23639C26.9444 9.2582 26.9323 9.34302 26.9226 9.42056L26.9056 9.56354L27.119 9.77678L27.3324 9.99246L27.25 10.0773C27.2039 10.1233 27.1602 10.1621 27.1481 10.1621C27.0923 10.1621 26.1732 9.73316 25.8991 9.57807L25.579 9.39875L25.0382 9.42783C24.7399 9.44479 24.4513 9.46418 24.398 9.47145L24.2985 9.48599L24.3082 9.70893C24.3131 9.83252 24.3228 9.95611 24.3276 9.98276C24.3349 10.0191 24.4634 10.116 24.7351 10.2929C25.0552 10.5013 25.2128 10.5837 25.5596 10.7291C25.9331 10.8842 26.6437 11.2647 26.6825 11.3277C26.6897 11.3398 26.6825 11.461 26.6679 11.5967C26.6412 11.8245 26.6267 11.8681 26.5127 12.0813C26.4448 12.2122 26.3818 12.3188 26.3696 12.3188C26.3599 12.3188 26.2653 12.2607 26.1586 12.1904C26.0253 12.1007 25.8337 11.9238 25.5232 11.6015L25.0794 11.1435L24.9558 11.1411C24.8369 11.1411 24.8224 11.1338 24.4537 10.843L24.073 10.5474L23.8984 10.5547L23.7238 10.5619L23.6728 10.7679L23.6219 10.9739L23.537 10.9666C23.3818 10.9521 23.3697 10.9424 23.3673 10.8333C23.3673 10.7776 23.36 10.7122 23.3503 10.6904C23.3406 10.6686 23.0229 10.419 22.6421 10.1379C22.2614 9.85675 21.9534 9.61927 21.9558 9.61442C21.9558 9.60715 22.0286 9.52234 22.1159 9.42541C22.2687 9.25578 22.2808 9.24608 22.47 9.19277C22.5791 9.16369 22.6664 9.12977 22.6664 9.12007C22.6664 9.1128 22.6155 9.02799 22.55 8.93591L22.436 8.7687L22.3051 8.76143C22.1862 8.75416 22.1474 8.73477 21.8879 8.55545L21.5993 8.35916L21.3204 8.42701L21.0415 8.49487L20.8669 8.35432C20.7723 8.27435 20.6099 8.14107 20.5104 8.05867L20.3261 7.90358L20.0909 7.91812C19.7344 7.93751 19.3876 7.8842 19.065 7.76303L18.7983 7.66126L18.4709 7.69034L18.1435 7.71941L17.7918 7.96659L17.4402 8.21376L17.1128 8.2695C16.8145 8.31797 16.7708 8.33251 16.6156 8.42944C16.5235 8.4876 16.3634 8.55787 16.264 8.58695C16.0942 8.63542 16.0772 8.64753 15.9851 8.77112L15.8881 8.9044L15.5825 8.88986L15.2794 8.87532L14.952 9.16854C14.7434 9.35756 14.6221 9.48599 14.61 9.52719C14.6003 9.56354 14.5542 9.76709 14.5033 9.98276L14.4136 10.3705L14.0935 10.7098C13.783 11.0369 13.7733 11.0514 13.7345 11.2089C13.7103 11.3035 13.6933 11.4682 13.6933 11.6015C13.6933 11.822 13.6982 11.8463 13.8146 12.1371C13.9698 12.5272 14.1686 12.9246 14.61 13.7316L14.9665 14.3786L15.1047 14.4634C15.2357 14.541 15.2672 14.5482 15.5073 14.5628L15.7668 14.5797L16.1015 14.8439C16.3367 15.0256 16.458 15.1056 16.5016 15.1056C16.538 15.1056 16.7854 15.1226 17.0522 15.1419C17.3189 15.1613 17.5493 15.1783 17.5614 15.1783C17.576 15.1783 17.6245 15.2389 17.6706 15.314L17.753 15.4497L17.8791 15.4327L18.0052 15.4182L18.2284 15.6775L18.4539 15.9344L18.5533 15.9222C18.6091 15.915 18.6964 15.9004 18.7522 15.8932L18.8492 15.8762L18.9123 16.31L18.9729 16.7413L18.8201 16.957C18.7352 17.0757 18.5849 17.2429 18.4878 17.3277L18.3084 17.4828L18.3787 17.8875C18.4151 18.1129 18.4733 18.6194 18.5048 19.0265C18.5655 19.7583 18.5655 19.7583 18.5169 19.9279C18.4248 20.2599 18.4248 20.2599 18.1071 20.4707L17.8185 20.6622L17.4717 21.6945L17.1273 22.7268L17.234 23.2527L17.3407 23.7785L17.2728 24.2317L17.2049 24.6873L16.9915 24.9659L16.7781 25.247L16.7611 25.5233C16.749 25.7099 16.7248 25.8553 16.6884 25.9643L16.6326 26.1267L16.846 26.1897L17.0594 26.2527L17.3019 26.1437L17.542 26.0346H17.8428H18.1435L18.6479 26.197L19.1548 26.3593L19.4725 26.1994C19.6495 26.1097 20.0303 25.8965 20.3188 25.7244L20.8451 25.4118L21.1046 25.3852C21.2477 25.3682 21.3738 25.344 21.3835 25.3294C21.3908 25.3149 21.4126 25.1259 21.432 24.9126L21.4635 24.5225L21.6018 24.3625L21.7424 24.2002L21.9801 24.1711C22.3608 24.1226 22.3754 24.1178 22.6155 23.9167L22.8386 23.7325H23.0278H23.2169L23.8935 23.1267C24.655 22.4433 24.592 22.533 24.6672 22.0362C24.689 21.8956 24.7302 21.6654 24.7617 21.5225C24.8175 21.2656 24.8199 21.2607 25.0794 20.8779L25.3389 20.4926L25.5014 20.4756C25.5887 20.4683 25.7027 20.4611 25.7561 20.4611C25.8143 20.4611 25.9525 20.415 26.132 20.3375C26.3696 20.2308 26.4957 20.1509 26.9589 19.8116L27.507 19.4118L27.6865 19.1064C28.009 18.5563 28.123 18.3576 28.123 18.3358C28.123 18.3237 28.0406 18.2849 27.9411 18.2486L27.7592 18.1856L27.6671 18.2825L27.5774 18.3794L27.3518 18.1977C27.0681 17.9675 27.0826 17.9772 27.0608 18.0402C27.0462 18.0741 27.0317 17.9893 27.0123 17.7712C26.9929 17.558 26.9905 17.4368 27.0074 17.4077C27.0632 17.3011 27.0365 17.2284 26.8789 17.0636C26.7019 16.8819 26.6049 16.6977 26.4375 16.2445C26.3332 15.9634 26.3235 15.9125 26.2896 15.5394C26.2605 15.2049 26.2605 15.1104 26.2872 14.982C26.3066 14.8778 26.3138 14.7421 26.3017 14.5725C26.2872 14.3083 26.2969 13.4965 26.3187 13.3221L26.3308 13.2227L26.5127 13.2639C26.6121 13.2881 26.7019 13.3148 26.7091 13.3221C26.7188 13.3317 26.6994 13.5862 26.6655 13.8891L26.6049 14.4392L26.7213 14.6912L26.8377 14.9408V15.3697C26.8377 16.0192 26.8813 16.3269 27.0317 16.7728L27.1578 17.1411L27.4512 17.5119C27.6113 17.713 27.7447 17.8851 27.7495 17.8875C27.752 17.8924 27.815 17.8512 27.8878 17.7979C28.0163 17.6985 28.0187 17.6985 28.2346 17.6985L28.4504 17.6961L29.1416 16.9327L29.8328 16.1694L29.874 15.9707C29.8958 15.8617 29.9152 15.755 29.9176 15.7332C29.9176 15.6896 29.7697 15.4788 29.4253 15.0329C29.1731 14.7082 29.1586 14.7009 28.9573 14.8463C28.8845 14.8972 28.8166 14.9335 28.8069 14.9263C28.7996 14.9166 28.7802 14.8124 28.7633 14.6912C28.739 14.5095 28.7148 14.4416 28.6275 14.2865C28.5401 14.1339 28.511 14.1023 28.4698 14.1072C28.4334 14.112 28.4019 14.0927 28.3752 14.0515C28.3413 14.0006 28.3389 13.9545 28.351 13.7776C28.3607 13.6613 28.3825 13.5014 28.3971 13.4238C28.4262 13.2809 28.4262 13.2784 28.5789 13.196C28.6638 13.15 28.7342 13.1161 28.739 13.1209C28.7633 13.1548 29.0058 13.8455 29.0494 14.0127L29.1052 14.2162L29.4326 14.4973C29.6121 14.6524 29.9346 14.9457 30.148 15.1516L30.5336 15.5248L30.6403 15.8665C30.701 16.0531 30.7834 16.3778 30.8246 16.5838L30.9023 16.9594L31.0696 17.0248L31.2394 17.0878L31.2321 17.5701C31.2272 17.8342 31.1957 18.474 31.1642 18.9925C31.1302 19.5111 31.106 19.9376 31.1108 19.94C31.1157 19.9425 31.1642 19.9691 31.2224 19.9982C31.2782 20.0273 31.3242 20.0612 31.3242 20.0733C31.3242 20.1484 31.0623 21.0257 30.9217 21.4207C30.3323 23.0855 29.4957 24.5855 28.3971 25.9571C26.1198 28.7972 22.8944 30.7406 19.3318 31.424C18.3642 31.6082 17.5129 31.6857 16.4459 31.6857C15.3303 31.6857 14.4645 31.6033 13.4605 31.4022L13.0676 31.3246L12.8372 31.0847C12.7111 30.9515 12.5826 30.8133 12.551 30.777C12.4904 30.7067 12.454 30.6946 9.07337 29.6405L8.44282 29.4442L8.03055 29.1728C6.26745 28.0144 4.78568 26.5314 3.6216 24.76L3.36453 24.3698L3.23843 23.478C3.11474 22.5887 3.11232 22.5863 3.02259 22.4263C2.97166 22.3391 2.90133 22.1622 2.86252 22.0386L2.79462 21.8108L2.83585 21.4813C2.86495 21.2413 2.88678 21.1444 2.91588 21.1275C2.93528 21.1129 3.02016 21.0596 3.10262 21.0063L3.25055 20.9094L3.2457 20.7761C3.24328 20.7034 3.23357 20.5216 3.2263 20.3762L3.21417 20.1097L3.46882 19.9231L3.72588 19.7341V19.4748V19.2131L4.31035 18.4497C4.63047 18.0305 4.90209 17.6767 4.91421 17.6646C4.92876 17.65 5.02577 17.6694 5.16158 17.7106L5.38712 17.7761L5.4817 17.6694C5.54233 17.604 5.82365 17.1096 6.21167 16.3899L6.84464 15.2171L7.19386 15.1468L7.54309 15.0765L7.64252 14.965C7.83653 14.7445 7.82926 14.7615 7.80016 14.5846C7.77833 14.4561 7.73225 14.3423 7.56249 14.0272L7.3515 13.6347L7.06048 13.4529L6.76946 13.2712L6.76219 12.8229L6.75734 12.377L6.32566 12.1468L5.8964 11.919L5.90125 11.3277L5.90853 10.7364L6.00554 10.5571L6.10497 10.3778L6.00796 10.2178C5.9158 10.0652 5.8964 10.0482 5.64904 9.91007L5.38712 9.76224L5.32892 9.5078L5.27071 9.25336L5.31194 8.81232C5.33619 8.56999 5.34589 8.35674 5.33377 8.33735C5.30466 8.28889 4.79053 7.61764 4.78325 7.61764C4.7784 7.61764 4.60864 7.68307 4.40735 7.76303C4.04843 7.90358 4.03145 7.90843 3.80834 7.90843C3.68223 7.90843 3.58037 7.90358 3.58037 7.89631C3.58037 7.86966 3.92232 7.37531 4.16726 7.04817C4.97242 5.9698 5.96916 4.95202 7.02168 4.13295C7.47033 3.784 7.44366 3.79611 7.75165 3.79127C7.95779 3.78642 8.11785 3.80338 8.45495 3.86397L8.8939 3.94151L8.98364 3.85428C9.03699 3.80338 9.09762 3.70403 9.12915 3.61922C9.1728 3.50774 9.23343 3.42293 9.37409 3.27511L9.56082 3.07882L9.76211 3.0667C9.93672 3.05701 9.9828 3.0449 10.0992 2.97462C10.2593 2.87769 10.5648 2.75652 10.7273 2.72502C10.7928 2.71048 11.1663 2.67656 11.5592 2.64748L12.2746 2.59659L12.3498 2.52389C12.391 2.48512 12.4783 2.38819 12.5438 2.30822C12.6602 2.16767 12.665 2.16524 12.7839 2.16524C12.9512 2.16767 13.2543 2.20886 13.3344 2.24037C13.3708 2.25491 13.4047 2.29368 13.4144 2.33003C13.4217 2.36395 13.4532 2.42454 13.4799 2.46331C13.5187 2.51662 13.526 2.55782 13.5187 2.6499C13.5066 2.75652 13.5114 2.76622 13.5478 2.74683C13.572 2.73472 13.6982 2.61113 13.8267 2.47542C14.0377 2.25006 14.0813 2.18705 14.2729 1.82599L14.4863 1.42614L14.6537 1.40918C14.7458 1.39949 14.9035 1.38495 15.0053 1.37768L15.1896 1.36314L15.3012 1.16443L15.4152 0.965716L15.3109 0.951178L15.209 0.936639L15.3303 0.92937C15.8347 0.900289 16.2979 0.888174 16.555 0.895443C16.7223 0.900289 16.926 0.905136 17.0085 0.905136ZM1.52626 14.2405C1.61599 14.6015 1.73725 15.1516 1.79545 15.4594L1.90216 16.0192L1.88276 16.5499L1.86336 17.0806L2.09132 17.4949C2.21743 17.7203 2.31929 17.919 2.31929 17.936C2.31929 17.9505 2.26836 18.142 2.20773 18.3576L2.09617 18.7526L2.0695 19.4796L2.04525 20.209L2.19318 20.6307C2.34839 21.0693 2.40417 21.3189 2.57151 22.3173L2.64911 22.7826L2.79462 23.02C2.90375 23.1994 2.97408 23.3593 3.08564 23.6889C3.1681 23.9288 3.2263 24.1154 3.21417 24.1033C3.18022 24.0669 2.88193 23.5217 2.71216 23.1824C1.87306 21.5055 1.3662 19.7413 1.16734 17.8076C1.06305 16.7995 1.07761 15.4279 1.20371 14.415C1.25949 13.9836 1.3274 13.5789 1.3468 13.5789C1.35407 13.5789 1.43653 13.877 1.52626 14.2405Z" fill="#ECECEC"/>
<path d="M15.7426 0.800933C13.8509 0.909982 12.2964 1.24924 10.6861 1.89868C7.84381 3.04732 5.41622 5.00533 3.67253 7.55706C2.35082 9.49084 1.47533 11.7445 1.14308 14.0733C1.02668 14.8923 1 15.331 1 16.3051C1 17.2647 1.02668 17.6791 1.14551 18.4982C1.7809 22.9716 4.34187 26.9482 8.15908 29.386C10.2884 30.7455 12.6287 31.5306 15.2454 31.7584C15.7741 31.8045 17.2365 31.7972 17.7797 31.7463C18.8419 31.6445 19.7974 31.4652 20.7263 31.1962C24.8684 29.9991 28.3243 27.1154 30.2572 23.2478C30.8004 22.1574 31.1035 21.3431 31.4576 20.0006C31.8093 18.6727 31.916 17.8487 31.916 16.4626C31.9184 15.457 31.8626 14.7712 31.6977 13.7849C31.1496 10.482 29.6169 7.52798 27.2451 5.20647C25.368 3.36477 23.1757 2.09012 20.6414 1.36556C19.3124 0.985104 18.8371 0.905136 17.2704 0.808203C16.9382 0.786395 16.0384 0.781549 15.7426 0.800933ZM17.0085 0.905136H17.1613L17.0376 1.13777C16.9139 1.36798 16.9115 1.37041 16.8872 1.68301C16.8727 1.86718 16.8727 2.00773 16.8848 2.01985C16.9091 2.04408 17.3116 2.16767 17.3238 2.15555C17.3286 2.1507 17.3504 2.05377 17.3723 1.93988C17.4111 1.74359 17.4208 1.72178 17.5275 1.61758L17.6415 1.50611L18.4151 1.85022C18.8395 2.04166 19.3003 2.25248 19.4409 2.32276L19.6956 2.44877L20.3334 2.39788L20.9688 2.34457L21.1458 2.17009C21.2428 2.07316 21.3277 1.99561 21.3374 1.99561C21.3447 1.99561 21.7594 2.1919 22.259 2.4318L23.1636 2.868H23.571H23.9808L24.2137 3.00612C24.9315 3.42535 25.7658 4.0239 26.4497 4.61034C26.7237 4.8454 27.2306 5.32036 27.2184 5.33006C27.2136 5.3349 27.0268 5.26947 26.7989 5.18466C25.8094 4.81632 25.1449 4.4916 24.8175 4.22019L24.7011 4.12326L23.8014 4.05298L22.8992 3.98029L22.6979 4.18142C22.5864 4.29047 22.4966 4.39709 22.4966 4.4189C22.4991 4.43829 22.5403 4.55218 22.5912 4.67335L22.6834 4.89144L22.8556 4.89871C22.9526 4.90356 23.0302 4.91325 23.0326 4.92294C23.0326 4.93264 23.0472 5.07561 23.0641 5.24282C23.0811 5.41002 23.0932 5.54815 23.0932 5.55057C23.0908 5.553 22.9598 5.47787 22.8022 5.38337C22.5767 5.25009 22.5112 5.21858 22.4942 5.24524C22.4821 5.26463 22.3948 5.41972 22.2978 5.58935C22.145 5.86075 22.1159 5.8971 22.0722 5.88499C22.0456 5.8753 21.9583 5.86318 21.8782 5.85591C21.7982 5.85106 21.7109 5.83652 21.6842 5.8244C21.6575 5.81229 21.609 5.80017 21.5751 5.79533C21.5314 5.79048 21.5023 5.7614 21.4708 5.69597C21.4223 5.59662 21.4053 5.59419 21.2089 5.63054C21.1216 5.64751 21.0561 5.67901 21.0052 5.72747L20.9324 5.79775L20.8233 5.71536C20.719 5.63539 20.7044 5.63054 20.5129 5.63054C20.297 5.63054 20.3091 5.62327 20.2558 5.7929C20.2412 5.83895 20.2509 5.84622 20.3625 5.86075L20.4838 5.87772L20.3746 6.01342C20.2752 6.14185 20.2703 6.15397 20.3019 6.20486C20.3528 6.27998 20.3504 6.28483 20.2461 6.28483C20.1273 6.28483 19.8314 6.20971 19.6252 6.12732C19.4458 6.05462 19.2518 6.04492 19.1257 6.09824C19.0238 6.13943 18.8759 6.28241 18.5582 6.64348L18.3181 6.91973L18.5097 7.11117L18.7013 7.30261H18.8395C18.9171 7.30261 19.0626 7.32684 19.162 7.35592C19.3173 7.40196 19.3464 7.41893 19.3658 7.47709C19.3924 7.55463 19.424 7.55706 19.8605 7.52798L20.0982 7.51344L20.3819 7.28807C20.6802 7.04817 20.6802 7.04817 21.0682 6.98274C21.2259 6.95608 21.2283 6.95608 21.4878 7.06028C21.7254 7.15479 21.7594 7.16206 21.8855 7.14752C22.259 7.1039 22.3099 7.10148 22.2929 7.12813C22.2687 7.16691 22.3439 7.32684 22.4869 7.54494C22.5524 7.64429 22.6616 7.85997 22.7295 8.0199C22.7998 8.18226 22.9113 8.39551 22.9768 8.49729C23.086 8.65723 23.1029 8.69842 23.1199 8.85594C23.1393 9.02799 23.1417 9.03526 23.1999 9.03041C23.2339 9.02557 23.394 9.03526 23.5589 9.0498C23.7238 9.06434 23.862 9.07161 23.8693 9.06434C23.8766 9.05949 23.8402 8.98922 23.7917 8.91167C23.7262 8.80505 23.6583 8.73962 23.5249 8.64996C23.377 8.54818 23.343 8.51183 23.3066 8.41974C23.2848 8.35916 23.1902 8.11441 23.0981 7.87693C23.0035 7.63945 22.9332 7.44074 22.938 7.43831C22.9404 7.43347 22.9938 7.41166 23.0544 7.38985C23.1805 7.34138 23.1781 7.33896 23.2969 7.56917C23.3357 7.64187 23.4206 7.78484 23.4885 7.88177C23.6074 8.0611 23.6146 8.06595 23.896 8.20892L24.1821 8.35674L24.1943 8.56514C24.2137 8.88017 24.2525 8.92863 24.6065 9.05949L24.8854 9.16127L25.0916 9.05222C25.385 8.89713 25.3874 8.89471 25.4529 8.77354L25.5135 8.6645L25.4117 8.52879L25.3074 8.39309H25.5717H25.8385L26.0447 8.61845C26.2459 8.83655 26.2581 8.84624 26.6049 9.0183C26.891 9.15885 26.9589 9.20247 26.9492 9.23639C26.9444 9.2582 26.9323 9.34302 26.9226 9.42056L26.9056 9.56354L27.119 9.77678L27.3324 9.99246L27.25 10.0773C27.2039 10.1233 27.1602 10.1621 27.1481 10.1621C27.0923 10.1621 26.1732 9.73316 25.8991 9.57807L25.579 9.39875L25.0382 9.42783C24.7399 9.44479 24.4513 9.46418 24.398 9.47145L24.2985 9.48599L24.3082 9.70893C24.3131 9.83252 24.3228 9.95611 24.3276 9.98276C24.3349 10.0191 24.4634 10.116 24.7351 10.2929C25.0552 10.5013 25.2128 10.5837 25.5596 10.7291C25.9331 10.8842 26.6437 11.2647 26.6825 11.3277C26.6897 11.3398 26.6825 11.461 26.6679 11.5967C26.6412 11.8245 26.6267 11.8681 26.5127 12.0813C26.4448 12.2122 26.3818 12.3188 26.3696 12.3188C26.3599 12.3188 26.2653 12.2607 26.1586 12.1904C26.0253 12.1007 25.8337 11.9238 25.5232 11.6015L25.0794 11.1435L24.9558 11.1411C24.8369 11.1411 24.8224 11.1338 24.4537 10.843L24.073 10.5474L23.8984 10.5547L23.7238 10.5619L23.6728 10.7679L23.6219 10.9739L23.537 10.9666C23.3818 10.9521 23.3697 10.9424 23.3673 10.8333C23.3673 10.7776 23.36 10.7122 23.3503 10.6904C23.3406 10.6686 23.0229 10.419 22.6421 10.1379C22.2614 9.85675 21.9534 9.61927 21.9558 9.61442C21.9558 9.60715 22.0286 9.52234 22.1159 9.42541C22.2687 9.25578 22.2808 9.24608 22.47 9.19277C22.5791 9.16369 22.6664 9.12977 22.6664 9.12007C22.6664 9.1128 22.6155 9.02799 22.55 8.93591L22.436 8.7687L22.3051 8.76143C22.1862 8.75416 22.1474 8.73477 21.8879 8.55545L21.5993 8.35916L21.3204 8.42701L21.0415 8.49487L20.8669 8.35432C20.7723 8.27435 20.6099 8.14107 20.5104 8.05867L20.3261 7.90358L20.0909 7.91812C19.7344 7.93751 19.3876 7.8842 19.065 7.76303L18.7983 7.66126L18.4709 7.69034L18.1435 7.71941L17.7918 7.96659L17.4402 8.21376L17.1128 8.2695C16.8145 8.31797 16.7708 8.33251 16.6156 8.42944C16.5235 8.4876 16.3634 8.55787 16.264 8.58695C16.0942 8.63542 16.0772 8.64753 15.9851 8.77112L15.8881 8.9044L15.5825 8.88986L15.2794 8.87532L14.952 9.16854C14.7434 9.35756 14.6221 9.48599 14.61 9.52719C14.6003 9.56354 14.5542 9.76709 14.5033 9.98276L14.4136 10.3705L14.0935 10.7098C13.783 11.0369 13.7733 11.0514 13.7345 11.2089C13.7103 11.3035 13.6933 11.4682 13.6933 11.6015C13.6933 11.822 13.6982 11.8463 13.8146 12.1371C13.9698 12.5272 14.1686 12.9246 14.61 13.7316L14.9665 14.3786L15.1047 14.4634C15.2357 14.541 15.2672 14.5482 15.5073 14.5628L15.7668 14.5797L16.1015 14.8439C16.3367 15.0256 16.458 15.1056 16.5016 15.1056C16.538 15.1056 16.7854 15.1226 17.0522 15.1419C17.3189 15.1613 17.5493 15.1783 17.5614 15.1783C17.576 15.1783 17.6245 15.2389 17.6706 15.314L17.753 15.4497L17.8791 15.4327L18.0052 15.4182L18.2284 15.6775L18.4539 15.9344L18.5533 15.9222C18.6091 15.915 18.6964 15.9004 18.7522 15.8932L18.8492 15.8762L18.9123 16.31L18.9729 16.7413L18.8201 16.957C18.7352 17.0757 18.5849 17.2429 18.4878 17.3277L18.3084 17.4828L18.3787 17.8875C18.4151 18.1129 18.4733 18.6194 18.5048 19.0265C18.5655 19.7583 18.5655 19.7583 18.5169 19.9279C18.4248 20.2599 18.4248 20.2599 18.1071 20.4707L17.8185 20.6622L17.4717 21.6945L17.1273 22.7268L17.234 23.2527L17.3407 23.7785L17.2728 24.2317L17.2049 24.6873L16.9915 24.9659L16.7781 25.247L16.7611 25.5233C16.749 25.7099 16.7248 25.8553 16.6884 25.9643L16.6326 26.1267L16.846 26.1897L17.0594 26.2527L17.3019 26.1437L17.542 26.0346H17.8428H18.1435L18.6479 26.197L19.1548 26.3593L19.4725 26.1994C19.6495 26.1097 20.0303 25.8965 20.3188 25.7244L20.8451 25.4118L21.1046 25.3852C21.2477 25.3682 21.3738 25.344 21.3835 25.3294C21.3908 25.3149 21.4126 25.1259 21.432 24.9126L21.4635 24.5225L21.6018 24.3625L21.7424 24.2002L21.9801 24.1711C22.3608 24.1226 22.3754 24.1178 22.6155 23.9167L22.8386 23.7325H23.0278H23.2169L23.8935 23.1267C24.655 22.4433 24.592 22.533 24.6672 22.0362C24.689 21.8956 24.7302 21.6654 24.7617 21.5225C24.8175 21.2656 24.8199 21.2607 25.0794 20.8779L25.3389 20.4926L25.5014 20.4756C25.5887 20.4683 25.7027 20.4611 25.7561 20.4611C25.8143 20.4611 25.9525 20.415 26.132 20.3375C26.3696 20.2308 26.4957 20.1509 26.9589 19.8116L27.507 19.4118L27.6865 19.1064C28.009 18.5563 28.123 18.3576 28.123 18.3358C28.123 18.3237 28.0406 18.2849 27.9411 18.2486L27.7592 18.1856L27.6671 18.2825L27.5774 18.3794L27.3518 18.1977C27.0681 17.9675 27.0826 17.9772 27.0608 18.0402C27.0462 18.0741 27.0317 17.9893 27.0123 17.7712C26.9929 17.558 26.9905 17.4368 27.0074 17.4077C27.0632 17.3011 27.0365 17.2284 26.8789 17.0636C26.7019 16.8819 26.6049 16.6977 26.4375 16.2445C26.3332 15.9634 26.3235 15.9125 26.2896 15.5394C26.2605 15.2049 26.2605 15.1104 26.2872 14.982C26.3066 14.8778 26.3138 14.7421 26.3017 14.5725C26.2872 14.3083 26.2969 13.4965 26.3187 13.3221L26.3308 13.2227L26.5127 13.2639C26.6121 13.2881 26.7019 13.3148 26.7091 13.3221C26.7188 13.3317 26.6994 13.5862 26.6655 13.8891L26.6049 14.4392L26.7213 14.6912L26.8377 14.9408V15.3697C26.8377 16.0192 26.8813 16.3269 27.0317 16.7728L27.1578 17.1411L27.4512 17.5119C27.6113 17.713 27.7447 17.8851 27.7495 17.8875C27.752 17.8924 27.815 17.8512 27.8878 17.7979C28.0163 17.6985 28.0187 17.6985 28.2346 17.6985L28.4504 17.6961L29.1416 16.9327L29.8328 16.1694L29.874 15.9707C29.8958 15.8617 29.9152 15.755 29.9176 15.7332C29.9176 15.6896 29.7697 15.4788 29.4253 15.0329C29.1731 14.7082 29.1586 14.7009 28.9573 14.8463C28.8845 14.8972 28.8166 14.9335 28.8069 14.9263C28.7996 14.9166 28.7802 14.8124 28.7633 14.6912C28.739 14.5095 28.7148 14.4416 28.6275 14.2865C28.5401 14.1339 28.511 14.1023 28.4698 14.1072C28.4334 14.112 28.4019 14.0927 28.3752 14.0515C28.3413 14.0006 28.3389 13.9545 28.351 13.7776C28.3607 13.6613 28.3825 13.5014 28.3971 13.4238C28.4262 13.2809 28.4262 13.2784 28.5789 13.196C28.6638 13.15 28.7342 13.1161 28.739 13.1209C28.7633 13.1548 29.0058 13.8455 29.0494 14.0127L29.1052 14.2162L29.4326 14.4973C29.6121 14.6524 29.9346 14.9457 30.148 15.1516L30.5336 15.5248L30.6403 15.8665C30.701 16.0531 30.7834 16.3778 30.8246 16.5838L30.9023 16.9594L31.0696 17.0248L31.2394 17.0878L31.2321 17.5701C31.2272 17.8342 31.1957 18.474 31.1642 18.9925C31.1302 19.5111 31.106 19.9376 31.1108 19.94C31.1157 19.9425 31.1642 19.9691 31.2224 19.9982C31.2782 20.0273 31.3242 20.0612 31.3242 20.0733C31.3242 20.1484 31.0623 21.0257 30.9217 21.4207C30.3323 23.0855 29.4957 24.5855 28.3971 25.9571C26.1198 28.7972 22.8944 30.7406 19.3318 31.424C18.3642 31.6082 17.5129 31.6857 16.4459 31.6857C15.3303 31.6857 14.4645 31.6033 13.4605 31.4022L13.0676 31.3246L12.8372 31.0847C12.7111 30.9515 12.5826 30.8133 12.551 30.777C12.4904 30.7067 12.454 30.6946 9.07337 29.6405L8.44282 29.4442L8.03055 29.1728C6.26745 28.0144 4.78568 26.5314 3.6216 24.76L3.36453 24.3698L3.23843 23.478C3.11474 22.5887 3.11232 22.5863 3.02259 22.4263C2.97166 22.3391 2.90133 22.1622 2.86252 22.0386L2.79462 21.8108L2.83585 21.4813C2.86495 21.2413 2.88678 21.1444 2.91588 21.1275C2.93528 21.1129 3.02016 21.0596 3.10262 21.0063L3.25055 20.9094L3.2457 20.7761C3.24328 20.7034 3.23357 20.5216 3.2263 20.3762L3.21417 20.1097L3.46882 19.9231L3.72588 19.7341V19.4748V19.2131L4.31035 18.4497C4.63047 18.0305 4.90209 17.6767 4.91421 17.6646C4.92876 17.65 5.02577 17.6694 5.16158 17.7106L5.38712 17.7761L5.4817 17.6694C5.54233 17.604 5.82365 17.1096 6.21167 16.3899L6.84464 15.2171L7.19386 15.1468L7.54309 15.0765L7.64252 14.965C7.83653 14.7445 7.82926 14.7615 7.80016 14.5846C7.77833 14.4561 7.73225 14.3423 7.56249 14.0272L7.3515 13.6347L7.06048 13.4529L6.76946 13.2712L6.76219 12.8229L6.75734 12.377L6.32566 12.1468L5.8964 11.919L5.90125 11.3277L5.90853 10.7364L6.00554 10.5571L6.10497 10.3778L6.00796 10.2178C5.9158 10.0652 5.8964 10.0482 5.64904 9.91007L5.38712 9.76224L5.32892 9.5078L5.27071 9.25336L5.31194 8.81232C5.33619 8.56999 5.34589 8.35674 5.33377 8.33735C5.30466 8.28889 4.79053 7.61764 4.78325 7.61764C4.7784 7.61764 4.60864 7.68307 4.40735 7.76303C4.04843 7.90358 4.03145 7.90843 3.80834 7.90843C3.68223 7.90843 3.58037 7.90358 3.58037 7.89631C3.58037 7.86966 3.92232 7.37531 4.16726 7.04817C4.97242 5.9698 5.96916 4.95202 7.02168 4.13295C7.47033 3.784 7.44366 3.79611 7.75165 3.79127C7.95779 3.78642 8.11785 3.80338 8.45495 3.86397L8.8939 3.94151L8.98364 3.85428C9.03699 3.80338 9.09762 3.70403 9.12915 3.61922C9.1728 3.50774 9.23343 3.42293 9.37409 3.27511L9.56082 3.07882L9.76211 3.0667C9.93672 3.05701 9.9828 3.0449 10.0992 2.97462C10.2593 2.87769 10.5648 2.75652 10.7273 2.72502C10.7928 2.71048 11.1663 2.67656 11.5592 2.64748L12.2746 2.59659L12.3498 2.52389C12.391 2.48512 12.4783 2.38819 12.5438 2.30822C12.6602 2.16767 12.665 2.16524 12.7839 2.16524C12.9512 2.16767 13.2543 2.20886 13.3344 2.24037C13.3708 2.25491 13.4047 2.29368 13.4144 2.33003C13.4217 2.36395 13.4532 2.42454 13.4799 2.46331C13.5187 2.51662 13.526 2.55782 13.5187 2.6499C13.5066 2.75652 13.5114 2.76622 13.5478 2.74683C13.572 2.73472 13.6982 2.61113 13.8267 2.47542C14.0377 2.25006 14.0813 2.18705 14.2729 1.82599L14.4863 1.42614L14.6537 1.40918C14.7458 1.39949 14.9035 1.38495 15.0053 1.37768L15.1896 1.36314L15.3012 1.16443L15.4152 0.965716L15.3109 0.951178L15.209 0.936639L15.3303 0.92937C15.8347 0.900289 16.2979 0.888174 16.555 0.895443C16.7223 0.900289 16.926 0.905136 17.0085 0.905136ZM1.52626 14.2405C1.61599 14.6015 1.73725 15.1516 1.79545 15.4594L1.90216 16.0192L1.88276 16.5499L1.86336 17.0806L2.09132 17.4949C2.21743 17.7203 2.31929 17.919 2.31929 17.936C2.31929 17.9505 2.26836 18.142 2.20773 18.3576L2.09617 18.7526L2.0695 19.4796L2.04525 20.209L2.19318 20.6307C2.34839 21.0693 2.40417 21.3189 2.57151 22.3173L2.64911 22.7826L2.79462 23.02C2.90375 23.1994 2.97408 23.3593 3.08564 23.6889C3.1681 23.9288 3.2263 24.1154 3.21417 24.1033C3.18022 24.0669 2.88193 23.5217 2.71216 23.1824C1.87306 21.5055 1.3662 19.7413 1.16734 17.8076C1.06305 16.7995 1.07761 15.4279 1.20371 14.415C1.25949 13.9836 1.3274 13.5789 1.3468 13.5789C1.35407 13.5789 1.43653 13.877 1.52626 14.2405Z" stroke="#ECECEC" stroke-width="10" mask="url(#path-1-outside-1)"/>
<path d="M20.9322 4.27406L20.9564 4.58909L20.7503 4.82415C20.6072 4.98651 20.5199 5.1101 20.4763 5.21672C20.4399 5.30154 20.4132 5.37423 20.4181 5.37908C20.4278 5.3912 21.536 5.33788 21.5482 5.32577C21.5651 5.31123 21.4536 4.95743 21.3566 4.71025C21.3057 4.58424 21.2523 4.3928 21.2353 4.28618C21.2184 4.17955 21.1965 4.07778 21.1868 4.05839C21.1698 4.02689 20.9977 3.96146 20.9322 3.95904C20.9152 3.95904 20.9152 4.06081 20.9322 4.27406Z" fill="#ECECEC"/>
<path d="M25.1597 23.9042L24.8275 24.1707L24.4322 24.1974L24.0369 24.224L23.8259 24.384C23.6198 24.5391 23.6125 24.5487 23.5397 24.7378C23.467 24.9244 23.4524 24.9413 23.2099 25.157C22.9528 25.3872 22.8752 25.4284 22.7103 25.4284C22.6085 25.4284 22.6012 25.4405 22.657 25.5205C22.6933 25.5714 22.6885 25.5811 22.5478 25.7386L22.3999 25.9009V26.0996C22.3999 26.3008 22.3999 26.3008 22.463 26.3008C22.543 26.3008 23.2754 26.2281 23.3118 26.216C23.3263 26.2111 23.6489 25.8622 24.0272 25.4405C24.4055 25.0164 24.7596 24.6214 24.8129 24.5633C24.9027 24.4639 24.9245 24.4542 25.0797 24.43C25.247 24.4034 25.2519 24.4034 25.4508 24.2071C25.5599 24.1004 25.6496 24.0011 25.6496 23.9865C25.6496 23.9453 25.5259 23.6352 25.509 23.6352C25.4993 23.6376 25.3416 23.7563 25.1597 23.9042Z" fill="#ECECEC"/>
</svg>
