<svg width="169" height="18" viewBox="0 0 169 18" fill="none" xmlns="http://www.w3.org/2000/svg">
<path d="M4.124 0.599999C3.852 0.327999 3.528 0.151999 3.152 0.0719991C2.776 -4.76837e-07 2.412 0.0359998 2.06 0.18C1.708 0.331999 1.428 0.563999 1.22 0.875999C1.004 1.196 0.896 1.548 0.896 1.932V16.104C0.896 16.632 1.08 17.08 1.448 17.448C1.816 17.816 2.264 18 2.792 18C3.312 18 3.756 17.816 4.124 17.448C4.492 17.08 4.676 16.632 4.676 16.104V6.492L8.54 10.356C8.908 10.724 9.352 10.908 9.872 10.908C10.4 10.908 10.848 10.724 11.216 10.356L15.08 6.492V16.104C15.08 16.632 15.264 17.08 15.632 17.448C16 17.816 16.444 18 16.964 18C17.484 18 17.928 17.816 18.296 17.448C18.672 17.08 18.86 16.632 18.86 16.104V1.932C18.86 1.548 18.752 1.196 18.536 0.875999C18.328 0.563999 18.044 0.331999 17.684 0.18C17.332 0.0359998 16.968 -4.76837e-07 16.592 0.0719991C16.224 0.151999 15.904 0.327999 15.632 0.599999L9.872 6.348L4.124 0.599999ZM38.9666 18C39.4866 18 39.9346 17.816 40.3106 17.448C40.6786 17.08 40.8626 16.632 40.8626 16.104C40.8626 15.584 40.6786 15.14 40.3106 14.772C39.9346 14.404 39.4866 14.22 38.9666 14.22H29.0426V10.908H36.6026C37.1226 10.908 37.5706 10.724 37.9466 10.356C38.3146 9.988 38.4986 9.544 38.4986 9.024C38.4986 8.496 38.3146 8.048 37.9466 7.68C37.5706 7.312 37.1226 7.128 36.6026 7.128H29.0426V3.816H38.9666C39.4866 3.816 39.9346 3.632 40.3106 3.264C40.6786 2.896 40.8626 2.452 40.8626 1.932C40.8626 1.412 40.6786 0.967999 40.3106 0.599999C39.9346 0.223999 39.4866 0.0359988 38.9666 0.0359988H27.1586C26.6306 0.0359988 26.1826 0.223999 25.8146 0.599999C25.4466 0.967999 25.2626 1.412 25.2626 1.932V16.104C25.2626 16.632 25.4466 17.08 25.8146 17.448C26.1826 17.816 26.6306 18 27.1586 18H38.9666ZM53.8844 6.156L56.1404 10.668H51.6284L53.8844 6.156ZM45.9524 17.796C46.4164 18.028 46.8964 18.06 47.3924 17.892C47.8884 17.732 48.2524 17.416 48.4844 16.944L49.7324 14.448H58.0244L59.2844 16.944C59.4444 17.272 59.6804 17.532 59.9924 17.724C60.2964 17.908 60.6244 18 60.9764 18C61.2724 18 61.5524 17.932 61.8164 17.796C62.2804 17.564 62.5964 17.2 62.7644 16.704C62.9324 16.208 62.8964 15.728 62.6564 15.264L55.5764 1.08C55.4164 0.759999 55.1844 0.503999 54.8804 0.311999C54.5764 0.127999 54.2444 0.0359988 53.8844 0.0359988C53.5244 0.0359988 53.1924 0.127999 52.8884 0.311999C52.5844 0.503999 52.3524 0.759999 52.1924 1.08L45.1004 15.264C44.8684 15.728 44.8364 16.208 45.0044 16.704C45.1644 17.2 45.4804 17.564 45.9524 17.796ZM69.7511 18C69.2231 18 68.7751 17.816 68.4071 17.448C68.0391 17.08 67.8551 16.632 67.8551 16.104V1.932C67.8551 1.412 68.0391 0.967999 68.4071 0.599999C68.7751 0.223999 69.2231 0.0359988 69.7511 0.0359988C70.2711 0.0359988 70.7151 0.223999 71.0831 0.599999C71.4511 0.967999 71.6351 1.412 71.6351 1.932V14.22H79.1951C79.7151 14.22 80.1631 14.404 80.5391 14.772C80.9071 15.14 81.0911 15.584 81.0911 16.104C81.0911 16.632 80.9071 17.08 80.5391 17.448C80.1631 17.816 79.7151 18 79.1951 18H69.7511ZM89.3324 0.599999C89.0604 0.327999 88.7364 0.151999 88.3604 0.0719991C87.9844 -4.76837e-07 87.6204 0.0359998 87.2684 0.18C86.9164 0.331999 86.6364 0.563999 86.4284 0.875999C86.2124 1.196 86.1044 1.548 86.1044 1.932V16.104C86.1044 16.632 86.2884 17.08 86.6564 17.448C87.0244 17.816 87.4724 18 88.0004 18C88.5204 18 88.9644 17.816 89.3324 17.448C89.7004 17.08 89.8844 16.632 89.8844 16.104V6.492L93.7484 10.356C94.1164 10.724 94.5604 10.908 95.0804 10.908C95.6084 10.908 96.0564 10.724 96.4244 10.356L100.288 6.492V16.104C100.288 16.632 100.472 17.08 100.84 17.448C101.208 17.816 101.652 18 102.172 18C102.692 18 103.136 17.816 103.504 17.448C103.88 17.08 104.068 16.632 104.068 16.104V1.932C104.068 1.548 103.96 1.196 103.744 0.875999C103.536 0.563999 103.252 0.331999 102.892 0.18C102.54 0.0359998 102.176 -4.76837e-07 101.8 0.0719991C101.432 0.151999 101.112 0.327999 100.84 0.599999L95.0804 6.348L89.3324 0.599999ZM118.031 6.156L120.287 10.668H115.775L118.031 6.156ZM110.099 17.796C110.563 18.028 111.043 18.06 111.539 17.892C112.035 17.732 112.399 17.416 112.631 16.944L113.879 14.448H122.171L123.431 16.944C123.591 17.272 123.827 17.532 124.139 17.724C124.443 17.908 124.771 18 125.123 18C125.419 18 125.699 17.932 125.963 17.796C126.427 17.564 126.743 17.2 126.911 16.704C127.079 16.208 127.043 15.728 126.803 15.264L119.723 1.08C119.563 0.759999 119.331 0.503999 119.027 0.311999C118.723 0.127999 118.391 0.0359988 118.031 0.0359988C117.671 0.0359988 117.339 0.127999 117.035 0.311999C116.731 0.503999 116.499 0.759999 116.339 1.08L109.247 15.264C109.015 15.728 108.983 16.208 109.151 16.704C109.311 17.2 109.627 17.564 110.099 17.796ZM143.822 6.66C143.822 7.436 143.542 8.104 142.982 8.664C142.43 9.216 141.762 9.492 140.978 9.492H135.782V3.816H140.978C141.762 3.816 142.43 4.096 142.982 4.656C143.542 5.208 143.822 5.876 143.822 6.66ZM133.898 18C134.418 18 134.862 17.816 135.23 17.448C135.598 17.08 135.782 16.632 135.782 16.104V13.272H140.978C142.802 13.272 144.362 12.624 145.658 11.328C146.954 10.04 147.602 8.484 147.602 6.66C147.602 4.836 146.954 3.276 145.658 1.98C144.362 0.683999 142.802 0.0359988 140.978 0.0359988H133.898C133.37 0.0359988 132.922 0.223999 132.554 0.599999C132.186 0.967999 132.002 1.412 132.002 1.932V16.104C132.002 16.632 132.186 17.08 132.554 17.448C132.922 17.816 133.37 18 133.898 18ZM164.883 6.66C164.883 7.436 164.603 8.104 164.043 8.664C163.491 9.216 162.823 9.492 162.039 9.492H156.843V3.816H162.039C162.823 3.816 163.491 4.096 164.043 4.656C164.603 5.208 164.883 5.876 164.883 6.66ZM154.959 18C155.479 18 155.923 17.816 156.291 17.448C156.659 17.08 156.843 16.632 156.843 16.104V13.272H162.039C163.863 13.272 165.423 12.624 166.719 11.328C168.015 10.04 168.663 8.484 168.663 6.66C168.663 4.836 168.015 3.276 166.719 1.98C165.423 0.683999 163.863 0.0359988 162.039 0.0359988H154.959C154.431 0.0359988 153.983 0.223999 153.615 0.599999C153.247 0.967999 153.063 1.412 153.063 1.932V16.104C153.063 16.632 153.247 17.08 153.615 17.448C153.983 17.816 154.431 18 154.959 18Z" fill="white"/>
</svg>
